<?xml version="1.0" encoding="UTF-8"?> <!-- Generator: Adobe Illustrator 24.2.1, SVG Export Plug-In . SVG Version: 6.00 Build 0) --> <svg xmlns="http://www.w3.org/2000/svg" xmlns:xlink="http://www.w3.org/1999/xlink" version="1.1" x="0px" y="0px" viewBox="0 0 540 540" style="enable-background:new 0 0 540 540;" xml:space="preserve"> <style type="text/css"> .st0{fill:#BBB1CC;} .st1{fill:#BA3038;} .st2{fill:#C85A60;} .st3{fill:none;} .st4{fill:#183059;} .st5{fill:#FAA919;} .st6{fill:#D58287;} .st7{fill:#F58B4E;} .st8{fill:#F8A87A;} .st9{fill:#F9B948;} .st10{fill:#ABC3D6;} .st11{fill:#EAF0F5;} .st12{fill:#FFFFFF;} .st13{fill:#72829A;} .st14{fill:#CFD1D2;} .st15{fill:#D1D2D3;} .st16{fill:#FFFFFF;stroke:#D1D2D3;stroke-width:2;stroke-linecap:round;stroke-miterlimit:10;} .st17{fill:#D0D6DD;} .st18{fill:#ACC4D7;} .st19{fill:#EBF0F5;} .st20{fill:#C85960;} </style> <g id="Layer_1"> <g id="Layer_1_1_"> <g> <rect y="1" class="st0" width="540" height="540"></rect> </g> </g> </g> <g id="Layer_2"> <g> <path class="st1" d="M290.48,235.21l1.19-3.32c0,0,1.4-0.82,1.46-1.89c0.01-0.18-0.18-0.3-0.33-0.21l-2.11,1.28l-1.35,3.1 L290.48,235.21z"></path> <path class="st1" d="M288.73,235.67l-0.75-7.24c-0.02-0.21,0.2-0.35,0.37-0.23c0.36,0.26,0.82,0.79,0.92,1.79 c0.16,1.65,0.59,2.9,0.59,2.9L288.73,235.67z"></path> <path class="st2" d="M295.07,241.36l-1.57-8.27c-0.04-0.22-0.29-0.3-0.44-0.15c-0.41,0.41-0.94,1.42-0.44,3.72l-0.38,2.68 L295.07,241.36z"></path> <g> <path class="st3" d="M289.89,232.92l0.52,1.25l-0.44-1.34C289.95,232.86,289.92,232.89,289.89,232.92z"></path> <path class="st4" d="M289.97,232.83l0.44,1.34l0.84,2.01l1.18,1.42l-1.85-5.62C290.43,232.25,290.23,232.53,289.97,232.83z"></path> <path class="st4" d="M289.24,227.9c-0.03-0.1-0.13-0.15-0.23-0.12l-0.46,0.17c-0.09,0.03-0.14,0.14-0.11,0.24l0.96,2.93 l0.62-0.84L289.24,227.9z"></path> <path class="st2" d="M290.97,229.5c-0.06-0.15-0.24-0.17-0.34-0.05l-0.61,0.83l0.56,1.7 C291.28,230.79,291.13,229.93,290.97,229.5z"></path> <path class="st2" d="M293.37,246.95c-0.77-0.59-1.36-1.39-1.72-2.32l-2.91-7.67l-0.34-4.48l1-1.36l0.56,1.71 c-0.03,0.03-0.05,0.06-0.08,0.09l0.52,1.25l1.8,5.48c0.03,0.1,0.13,0.15,0.23,0.12l0.46-0.17c0.09-0.03,0.14-0.14,0.11-0.24 l-0.58-1.76l2.53,3.04l0.48,2.15c0.11,0.49,0.42,0.91,0.84,1.15l18.61,10.69c0.71-0.17,1.31-0.64,1.67-1.31l2.29-4.27h10.88 l-7.36,10.83c-0.99,1.45-4.87,4.43-8.23,2.63L293.37,246.95z"></path> <path class="st4" d="M290.42,234.17l1.8,5.48c0.03,0.1,0.13,0.15,0.23,0.12l0.46-0.17c0.09-0.03,0.14-0.14,0.11-0.24l-0.58-1.76 l-1.18-1.42L290.42,234.17z"></path> <path class="st2" d="M290.59,231.98l-0.56-1.7l-0.62,0.84l0.56,1.71C290.23,232.53,290.43,232.25,290.59,231.98z"></path> </g> </g> <path class="st5" d="M332.66,230.38l-1.17,0.42c-2.3,0.82-4.24,2.5-5.43,4.73l-8.31,15.52h10.88l5.05-7.72L332.66,230.38z"></path> <g> <path class="st4" d="M264.57,322.86l-4.76,9.29c-0.02,0.04-0.04,0.08-0.06,0.12c-0.74,1.67,1.65,1.87,3.34,1.38l1.55-0.45 c1.87-0.54,3.6-1.55,4.99-2.97c1.15-1.18,1.65-2.09,1.86-3.51c0,0,0.14-2.69,3.42-4.83c1.07-0.7,1.07-1.67,1.19-2.99l0.32-3.46 C274.56,318.51,270.21,324.27,264.57,322.86z"></path> <path class="st6" d="M276.42,315.45l0.08-0.84h-7.75l-6.45,12.69C267.93,328.72,274.56,318.51,276.42,315.45z"></path> </g> <g> <path class="st1" d="M356.48,222c0.05-4.62-2.3-8.67-5.83-10.84c-0.5-0.31-0.75-0.92-0.61-1.52c0.12-0.5,0.18-1.03,0.18-1.57 c0-3.31-2.29-6.06-5.3-6.59c-0.5-0.09-0.92-0.44-1.09-0.94c-0.75-2.14-2.52-3.77-4.69-4.24c-0.41-0.09-0.77-0.36-0.97-0.74 c-1.11-2.01-3.01-3.98-6.37-4.59c-8.09-1.48-14.38,2.51-15.28,5.47c-0.12,0.41-0.43,0.72-0.83,0.83 c-2.71,0.76-4.71,3.36-4.71,6.45c0,0.78,0.13,1.52,0.36,2.22c0.12,0.35,0.01,0.73-0.26,0.97c-1.41,1.23-2.31,3.08-2.31,5.15 c0,1.34,0.37,2.58,1.02,3.62c0.21,0.35,0.13,0.81-0.17,1.06c-2.04,1.69-3.31,4.35-3.19,7.32c0.19,4.56,7.02,10.41,11.36,10.57 c1.34,0.05,2.61-0.23,3.75-0.77c0.34-1.88,1.09-3.99,2.43-6.3l0,0c3.1-0.07,6.13-1.03,8.75-2.77l0.63-0.42 c2.08-1.33,4.48-1.99,6.92-1.92l0,0c5.22,0.16,9.36,5.54,8.54,10.9c0,0.02-0.01,0.04-0.01,0.07 C353.2,231.66,356.42,227.17,356.48,222z"></path> <g> <path class="st3" d="M301.15,272.15c-0.22,0.04-0.45,0.09-0.67,0.15C300.71,272.25,300.93,272.2,301.15,272.15z"></path> <path class="st7" d="M294.84,261.64c-4.72-1.59-8.34,2.22-9.98,6.42l-21.94,45.86c-0.32,0.67,0.14,1.46,0.85,1.47l12.72,0.1 c0,0,0.82-5.15,8.37-14.15c0.84-1,1.74-2.03,2.64-3.15c3.3-4.1,5.21-6.41,6.03-16.04c0.24-2.81,1.13-5.03,2.44-6.78 c1.14-1.52,2.74-2.57,4.51-3.05c0.22-0.06,0.44-0.11,0.67-0.15c4.86-1.08,10.88-2.01,18.34-2.61c1.08-0.09,2.04-0.72,2.59-1.67 L294.84,261.64z"></path> <path class="st8" d="M345.29,265.27c-0.94-2.33-1.66-4.66-2.06-7.05H324.9c-0.05,0.54-0.15,1.08-0.31,1.6l-2.17,7.27 c-0.08,0.28-0.2,0.54-0.34,0.78c-0.55,0.95-1.51,1.58-2.59,1.67c-7.46,0.6-13.48,1.53-18.34,2.61c-0.22,0.05-0.45,0.1-0.67,0.15 c-1.77,0.48-3.37,1.53-4.51,3.05c-1.31,1.75-2.2,3.97-2.44,6.78c-0.83,9.62-6.65,16.71-9.95,20.82l4.96,33.85 c0.08,0.56,0.54,0.97,1.08,0.97l10.19-0.05c-0.15-2.86-0.23-6.06,0.4-9.17c2.86-14.04,1.53-19.83-1.12-27.34 c-2.19-6.18-2.92-11.06-3.11-12.58c-0.03-0.27,0.15-0.52,0.41-0.54c2.47-0.23,14.51-0.92,32.38-0.92 C348.91,287.17,348.04,272.11,345.29,265.27z"></path> </g> <path class="st6" d="M290.53,339.38c-0.67,1.46-3.19,3.45-5.8,5.23c10.51-0.33,14.07-4.69,15.11-6.55 c-0.01-0.11-0.02-0.23-0.02-0.35h-8.57C291.03,338.26,290.79,338.8,290.53,339.38z"></path> <path class="st4" d="M299.83,338.07c-1.04,1.86-4.6,6.22-15.11,6.55c-2.36,1.6-4.79,3.03-6.03,3.74c-0.01,0-0.01,0.01-0.01,0.01 c-0.66,0.38-0.38,1.44,0.37,1.45l8.93,0.04c1.9,0.01,3.74-0.71,5.14-2.06c0.68-0.66,1.59-1.17,3.78-1.71 C301.43,344.98,301.2,346.32,299.83,338.07z"></path> <path class="st7" d="M343.4,249.33h-18.92l0.42,8.9h18.32C342.76,255.38,342.75,252.45,343.4,249.33z"></path> </g> <path class="st6" d="M285.23,261.77c0,0-2.54,1.39-4.38,2.33c-0.12,0.06-0.13,0.22-0.03,0.33c0.3,0.34,1.3,0.87,2.94-0.14l5.8-2.18 l2-3.23L285.23,261.77z"></path> <path class="st6" d="M288.64,261l-4.15,3.96c-0.14,0.14-0.24,0.32-0.28,0.52l-0.86,4.94c-0.04,0.21,0.17,0.37,0.35,0.27 c0.57-0.31,1.54-1.21,1.69-3.76c0.02-0.27,0.15-0.53,0.36-0.69l3.39-3.3L288.64,261z"></path> <path class="st6" d="M319.61,261.26c-0.15,0.4-0.56,0.64-0.96,0.56l-21.53-4.13c-2.25-0.43-4.58-0.06-6.61,1.07l-1.1,0.61 l-3.48,5.66c-0.17,0.27-0.24,0.6-0.2,0.92l0.64,4.96c0.02,0.13,0.08,0.24,0.18,0.32l2.05,1.57c0.24,0.18,0.57-0.04,0.51-0.35 c-0.29-1.34-0.88-1.98-1.17-2.23c-0.11-0.09-0.17-0.23-0.17-0.37l0.03-3.41c0-0.26,0.21-0.46,0.46-0.45 c0.17,0.01,0.32,0.14,0.39,0.31l0.54,1.27c0.03,0.09,0.09,0.17,0.17,0.23l1.88,1.41c0.08,0.06,0.17,0.09,0.27,0.09l2.36,0.06 c0.18,0,0.3-0.2,0.21-0.37c-0.38-0.71-1.22-0.86-1.57-0.89c-0.11-0.01-0.22-0.06-0.3-0.15l-1.41-1.53 c-0.06-0.07-0.11-0.15-0.12-0.25l-0.15-1.08c-0.05-0.24,0.1-0.47,0.33-0.51l3.99-0.7c0.82-0.14,1.58-0.52,2.22-1.08l0.28-0.24 l22.5,7.55c1.82,0.61,3.81-0.17,4.8-1.89l8.47-16.07l-11.16,3.02L319.61,261.26z"></path> <path class="st6" d="M330.1,219.91c-0.32-0.61-0.52-1.26-0.62-1.91c-0.28-1.84-0.19-1.55-1.57-2.73c-0.55-0.47-1.02-1.05-1.38-1.75 c-0.49-0.94-0.71-1.96-0.69-2.96c0.02-1.2-0.62-2.31-1.62-2.89c-0.9-0.53-1.67-1.32-2.2-2.33c-0.76-1.45-0.87-3.09-0.45-4.56 c-2.43,1.29-5.22,1.09-7.4-0.29c-0.03,0.44-0.09,2.5,1.13,4.23c0.95,1.34,0.29,3.01-0.21,3.93c-0.21,0.39-0.08,0.88,0.29,1.1 l0.52,0.3l0.13,1.12c0.04,0.32,0.24,0.59,0.53,0.69l0.41,0.16c0.3,0.17,0.46,0.52,0.39,0.87l0.05,0.09 c0.13,0.25,0.42,0.58,0.64,0.74c0.15,0.11,0.27,0.26,0.35,0.43l0.43,0.88c0.25,0.5,0.79,0.75,1.31,0.59l3.08-0.94 c0.82-0.25,1.7,0.1,2.16,0.85c1.53,2.49,0.52,6.9-1.39,12.02c2.15,0.21,9.16-0.69,11.14-3.26 C333.66,223.91,330.89,221.42,330.1,219.91z"></path> <path class="st9" d="M340.29,222.45c-2.43-0.08-4.83,0.59-6.92,1.92l-0.63,0.42c-0.78,0.52-1.6,0.97-2.45,1.35 c-1.85,0.82-3.82,1.3-5.83,1.41c-0.16,0.01-0.31,0.02-0.47,0.02c-1.35,2.31-2.09,4.42-2.43,6.3c-0.82,4.53,0.7,7.84,1.76,9.45 l1.17,6.07l6.07-0.05h12.85c0.41-1.95,1.07-3.97,2.04-6.08c1.43-3.13,2.86-6.46,3.38-9.82c0-0.02,0.01-0.04,0.01-0.07 C349.65,227.99,345.51,222.61,340.29,222.45z"></path> <path class="st5" d="M336.07,255.19l-14.22,0.2l8.5-22.11c0.78-2.04,2.44-3.56,4.47-4.1h0c5.21-1.39,9.71,4.03,7.69,9.27 L336.07,255.19z"></path> </g> <g id="Layer_4"> <g> <g> <polygon class="st10" points="491.41,350.85 442.01,350.85 392.6,350.85 392.6,369.22 392.6,387.6 442.01,387.6 491.41,387.6 "></polygon> <g> <polygon class="st10" points="428.94,350.72 485.15,350.72 485.15,387.6 479.96,387.6 470.55,399.46 461.14,387.6 428.94,387.6 "></polygon> </g> </g> <g> <ellipse class="st11" cx="428.24" cy="369.75" rx="3.83" ry="3.79"></ellipse> <ellipse class="st11" cx="442.01" cy="369.75" rx="3.83" ry="3.79"></ellipse> <ellipse class="st11" cx="455.77" cy="369.75" rx="3.83" ry="3.79"></ellipse> </g> </g> <g> <rect x="72.98" y="411.33" class="st12" width="75.16" height="131.26"></rect> <rect x="63.93" y="411.33" class="st13" width="35.15" height="131.33"></rect> <rect x="93.64" y="403.66" class="st12" width="41.16" height="8.27"></rect> <rect x="83.09" y="403.66" class="st13" width="23.27" height="8.27"></rect> <rect x="102.78" y="414.83" class="st14" width="6.12" height="18.51"></rect> <rect x="102.78" y="438.32" class="st15" width="6.12" height="5.32"></rect> <rect x="102.78" y="448.6" class="st15" width="6.12" height="5.32"></rect> <rect x="102.78" y="458.89" class="st15" width="6.12" height="5.32"></rect> <rect x="102.78" y="469.17" class="st15" width="6.12" height="5.32"></rect> <rect x="102.78" y="479.46" class="st15" width="6.12" height="5.32"></rect> <rect x="102.78" y="489.75" class="st15" width="6.12" height="5.32"></rect> <rect x="102.78" y="500.03" class="st15" width="6.12" height="5.32"></rect> <rect x="102.78" y="510.32" class="st15" width="6.12" height="5.32"></rect> <rect x="114.98" y="414.83" class="st14" width="6.12" height="18.51"></rect> <rect x="114.98" y="438.32" class="st15" width="6.12" height="5.32"></rect> <rect x="114.98" y="448.6" class="st15" width="6.12" height="5.32"></rect> <rect x="114.98" y="458.89" class="st15" width="6.12" height="5.32"></rect> <rect x="114.98" y="469.17" class="st15" width="6.12" height="5.32"></rect> <rect x="114.98" y="479.46" class="st15" width="6.12" height="5.32"></rect> <rect x="114.98" y="489.75" class="st15" width="6.12" height="5.32"></rect> <rect x="114.98" y="500.03" class="st15" width="6.12" height="5.32"></rect> <rect x="114.98" y="510.32" class="st15" width="6.12" height="5.32"></rect> <rect x="127.27" y="414.83" class="st14" width="6.12" height="18.51"></rect> <rect x="127.27" y="438.32" class="st15" width="6.12" height="5.32"></rect> <rect x="127.27" y="448.6" class="st15" width="6.12" height="5.32"></rect> <rect x="127.27" y="458.89" class="st15" width="6.12" height="5.32"></rect> <rect x="127.27" y="469.17" class="st15" width="6.12" height="5.32"></rect> <rect x="127.27" y="479.46" class="st15" width="6.12" height="5.32"></rect> <rect x="127.27" y="489.75" class="st15" width="6.12" height="5.32"></rect> <rect x="127.27" y="500.03" class="st15" width="6.12" height="5.32"></rect> <rect x="127.27" y="510.32" class="st15" width="6.12" height="5.32"></rect> <rect x="139.32" y="414.83" class="st14" width="6.12" height="18.51"></rect> <rect x="139.32" y="438.32" class="st15" width="6.12" height="5.32"></rect> <rect x="139.32" y="448.6" class="st15" width="6.12" height="5.32"></rect> <rect x="139.32" y="458.89" class="st15" width="6.12" height="5.32"></rect> <rect x="139.32" y="469.17" class="st15" width="6.12" height="5.32"></rect> <rect x="139.32" y="479.46" class="st15" width="6.12" height="5.32"></rect> <rect x="139.32" y="489.75" class="st15" width="6.12" height="5.32"></rect> <rect x="139.32" y="500.03" class="st15" width="6.12" height="5.32"></rect> <rect x="139.32" y="510.32" class="st15" width="6.12" height="5.32"></rect> <rect x="102.78" y="520.63" class="st15" width="6.12" height="5.32"></rect> <rect x="102.78" y="530.92" class="st15" width="6.12" height="5.32"></rect> <rect x="114.98" y="520.63" class="st15" width="6.12" height="5.32"></rect> <rect x="114.98" y="530.92" class="st15" width="6.12" height="5.32"></rect> <rect x="127.27" y="520.63" class="st15" width="6.12" height="5.32"></rect> <rect x="127.27" y="530.92" class="st15" width="6.12" height="5.32"></rect> <rect x="139.32" y="520.63" class="st15" width="6.12" height="5.32"></rect> <rect x="139.32" y="530.92" class="st15" width="6.12" height="5.32"></rect> </g> <g> <rect x="383.06" y="460.47" class="st15" width="49.65" height="79.15"></rect> <polygon class="st13" points="375.63,538.69 397.26,538.69 397.26,460.47 376.2,460.47 "></polygon> <g> <rect x="400.28" y="464" class="st13" width="29.04" height="3.77"></rect> <rect x="400.28" y="475.64" class="st13" width="29.04" height="3.77"></rect> <rect x="400.22" y="487.7" class="st13" width="29.04" height="5.39"></rect> <rect x="400.22" y="502.93" class="st13" width="29.04" height="5.39"></rect> <rect x="400.22" y="521.01" class="st13" width="29.04" height="5.39"></rect> </g> </g> <g> <polygon class="st13" points="332.27,539.68 300.57,539.68 300.57,286.95 332.27,315.4 "></polygon> <polygon class="st12" points="362.98,314.73 330.94,314.73 300.57,286.95 333.27,286.95 "></polygon> <polygon class="st15" points="330.91,539.68 362.95,539.77 362.95,314.74 330.91,314.65 "></polygon> <path class="st15" d="M325.59,304.02h16.65c0.02,0,0.04-0.02,0.04-0.04v-35.64c0-0.02-0.02-0.04-0.04-0.04h-16.65V304.02z"></path> <polygon class="st13" points="325.6,268.24 325.6,303.97 306.24,286.95 "></polygon> <g> <path class="st13" d="M356.35,343.85h3.84c0.03,0,0.05-0.02,0.05-0.05v-26.15c0-0.03-0.02-0.05-0.05-0.05h-3.84 c-0.03,0-0.05,0.02-0.05,0.05v26.15C356.3,343.83,356.32,343.85,356.35,343.85z"></path> <path class="st13" d="M349.47,343.85h3.84c0.03,0,0.05-0.02,0.05-0.05v-26.15c0-0.03-0.02-0.05-0.05-0.05h-3.84 c-0.03,0-0.05,0.02-0.05,0.05v26.15C349.42,343.83,349.44,343.85,349.47,343.85z"></path> <path class="st13" d="M341.85,343.85h3.84c0.03,0,0.05-0.02,0.05-0.05v-26.15c0-0.03-0.02-0.05-0.05-0.05h-3.84 c-0.03,0-0.05,0.02-0.05,0.05v26.15C341.8,343.83,341.82,343.85,341.85,343.85z"></path> <path class="st13" d="M334.97,343.85h3.84c0.03,0,0.05-0.02,0.05-0.05v-26.15c0-0.03-0.02-0.05-0.05-0.05h-3.84 c-0.03,0-0.05,0.02-0.05,0.05v26.15C334.92,343.83,334.94,343.85,334.97,343.85z"></path> </g> <g> <g> <path class="st16" d="M354.89,373.16h5.17c0.07,0,0.12-0.06,0.12-0.12v-21.97c0-0.07-0.06-0.12-0.12-0.12h-5.17 c-0.07,0-0.12,0.06-0.12,0.12v21.97C354.77,373.1,354.82,373.16,354.89,373.16z"></path> <path class="st16" d="M341,373.16h5.17c0.07,0,0.12-0.06,0.12-0.12v-21.97c0-0.07-0.06-0.12-0.12-0.12H341 c-0.07,0-0.12,0.06-0.12,0.12v21.97C340.88,373.1,340.93,373.16,341,373.16z"></path> <path class="st16" d="M347.95,382.01h5.17c0.07,0,0.12-0.06,0.12-0.12v-21.97c0-0.07-0.06-0.12-0.12-0.12h-5.17 c-0.07,0-0.12,0.06-0.12,0.12v21.97C347.82,381.95,347.88,382.01,347.95,382.01z"></path> <path class="st16" d="M347.95,358.45h5.17c0.07,0,0.12-0.06,0.12-0.12v-7.26c0-0.07-0.06-0.12-0.12-0.12h-5.17 c-0.07,0-0.12,0.06-0.12,0.12v7.26C347.82,358.4,347.88,358.45,347.95,358.45z"></path> <path class="st16" d="M334.1,358.45h5.17c0.07,0,0.12-0.06,0.12-0.12v-7.26c0-0.07-0.06-0.12-0.12-0.12h-5.17 c-0.07,0-0.12,0.06-0.12,0.12v7.26C333.98,358.4,334.03,358.45,334.1,358.45z"></path> <path class="st16" d="M334.05,381.9h5.17c0.07,0,0.12-0.06,0.12-0.12v-21.97c0-0.07-0.06-0.12-0.12-0.12h-5.17 c-0.07,0-0.12,0.06-0.12,0.12v21.97C333.93,381.84,333.99,381.9,334.05,381.9z"></path> </g> <g> <path class="st16" d="M354.78,405.37h5.17c0.07,0,0.12-0.06,0.12-0.12v-21.97c0-0.07-0.06-0.12-0.12-0.12h-5.17 c-0.07,0-0.12,0.06-0.12,0.12v21.97C354.66,405.31,354.71,405.37,354.78,405.37z"></path> <path class="st16" d="M340.89,405.37h5.17c0.07,0,0.12-0.06,0.12-0.12v-21.97c0-0.07-0.06-0.12-0.12-0.12h-5.17 c-0.07,0-0.12,0.06-0.12,0.12v21.97C340.77,405.31,340.82,405.37,340.89,405.37z"></path> <path class="st16" d="M347.83,414.22H353c0.07,0,0.12-0.06,0.12-0.12v-21.97c0-0.07-0.06-0.12-0.12-0.12h-5.17 c-0.07,0-0.12,0.06-0.12,0.12v21.97C347.71,414.16,347.77,414.22,347.83,414.22z"></path> <path class="st16" d="M347.83,390.66H353c0.07,0,0.12-0.06,0.12-0.12v-7.26c0-0.07-0.06-0.12-0.12-0.12h-5.17 c-0.07,0-0.12,0.06-0.12,0.12v7.26C347.71,390.61,347.77,390.66,347.83,390.66z"></path> <path class="st16" d="M333.99,390.66h5.17c0.07,0,0.12-0.06,0.12-0.12v-7.26c0-0.07-0.06-0.12-0.12-0.12h-5.17 c-0.07,0-0.12,0.06-0.12,0.12v7.26C333.86,390.61,333.92,390.66,333.99,390.66z"></path> <path class="st16" d="M333.94,414.1h5.17c0.07,0,0.12-0.06,0.12-0.12v-21.97c0-0.07-0.06-0.12-0.12-0.12h-5.17 c-0.07,0-0.12,0.06-0.12,0.12v21.97C333.82,414.05,333.87,414.1,333.94,414.1z"></path> </g> <g> <path class="st16" d="M354.78,437.63h5.17c0.07,0,0.12-0.06,0.12-0.12v-21.97c0-0.07-0.06-0.12-0.12-0.12h-5.17 c-0.07,0-0.12,0.06-0.12,0.12v21.97C354.66,437.58,354.71,437.63,354.78,437.63z"></path> <path class="st16" d="M340.89,437.63h5.17c0.07,0,0.12-0.06,0.12-0.12v-21.97c0-0.07-0.06-0.12-0.12-0.12h-5.17 c-0.07,0-0.12,0.06-0.12,0.12v21.97C340.77,437.58,340.82,437.63,340.89,437.63z"></path> <path class="st16" d="M347.83,446.48H353c0.07,0,0.12-0.06,0.12-0.12V424.4c0-0.07-0.06-0.12-0.12-0.12h-5.17 c-0.07,0-0.12,0.06-0.12,0.12v21.97C347.71,446.43,347.77,446.48,347.83,446.48z"></path> <path class="st16" d="M347.83,422.92H353c0.07,0,0.12-0.06,0.12-0.12v-7.26c0-0.07-0.06-0.12-0.12-0.12h-5.17 c-0.07,0-0.12,0.06-0.12,0.12v7.26C347.71,422.87,347.77,422.92,347.83,422.92z"></path> <path class="st16" d="M333.99,422.92h5.17c0.07,0,0.12-0.06,0.12-0.12v-7.26c0-0.07-0.06-0.12-0.12-0.12h-5.17 c-0.07,0-0.12,0.06-0.12,0.12v7.26C333.86,422.87,333.92,422.92,333.99,422.92z"></path> <path class="st16" d="M333.94,446.37h5.17c0.07,0,0.12-0.06,0.12-0.12v-21.97c0-0.07-0.06-0.12-0.12-0.12h-5.17 c-0.07,0-0.12,0.06-0.12,0.12v21.97C333.82,446.32,333.87,446.37,333.94,446.37z"></path> </g> <g> <path class="st16" d="M354.67,469.73h5.17c0.07,0,0.12-0.06,0.12-0.12v-21.97c0-0.07-0.06-0.12-0.12-0.12h-5.17 c-0.07,0-0.12,0.06-0.12,0.12v21.97C354.54,469.67,354.6,469.73,354.67,469.73z"></path> <path class="st16" d="M340.78,469.73h5.17c0.07,0,0.12-0.06,0.12-0.12v-21.97c0-0.07-0.06-0.12-0.12-0.12h-5.17 c-0.07,0-0.12,0.06-0.12,0.12v21.97C340.65,469.67,340.71,469.73,340.78,469.73z"></path> <path class="st16" d="M347.72,478.58h5.17c0.07,0,0.12-0.06,0.12-0.12v-21.97c0-0.07-0.06-0.12-0.12-0.12h-5.17 c-0.07,0-0.12,0.06-0.12,0.12v21.97C347.6,478.53,347.65,478.58,347.72,478.58z"></path> <path class="st16" d="M347.72,455.02h5.17c0.07,0,0.12-0.06,0.12-0.12v-7.26c0-0.07-0.06-0.12-0.12-0.12h-5.17 c-0.07,0-0.12,0.06-0.12,0.12v7.26C347.6,454.97,347.65,455.02,347.72,455.02z"></path> <path class="st16" d="M333.88,455.02h5.17c0.07,0,0.12-0.06,0.12-0.12v-7.26c0-0.07-0.06-0.12-0.12-0.12h-5.17 c-0.07,0-0.12,0.06-0.12,0.12v7.26C333.75,454.97,333.81,455.02,333.88,455.02z"></path> <path class="st16" d="M333.83,478.47H339c0.07,0,0.12-0.06,0.12-0.12v-21.97c0-0.07-0.06-0.12-0.12-0.12h-5.17 c-0.07,0-0.12,0.06-0.12,0.12v21.97C333.71,478.41,333.76,478.47,333.83,478.47z"></path> </g> <g> <path class="st16" d="M354.59,501.84h5.17c0.07,0,0.12-0.06,0.12-0.12v-21.97c0-0.07-0.06-0.12-0.12-0.12h-5.17 c-0.07,0-0.12,0.06-0.12,0.12v21.97C354.47,501.79,354.52,501.84,354.59,501.84z"></path> <path class="st16" d="M340.7,501.84h5.17c0.07,0,0.12-0.06,0.12-0.12v-21.97c0-0.07-0.06-0.12-0.12-0.12h-5.17 c-0.07,0-0.12,0.06-0.12,0.12v21.97C340.58,501.79,340.63,501.84,340.7,501.84z"></path> <path class="st16" d="M347.65,510.7h5.17c0.07,0,0.12-0.06,0.12-0.12v-21.97c0-0.07-0.06-0.12-0.12-0.12h-5.17 c-0.07,0-0.12,0.06-0.12,0.12v21.97C347.52,510.64,347.58,510.7,347.65,510.7z"></path> <path class="st16" d="M347.65,487.14h5.17c0.07,0,0.12-0.06,0.12-0.12v-7.26c0-0.07-0.06-0.12-0.12-0.12h-5.17 c-0.07,0-0.12,0.06-0.12,0.12v7.26C347.52,487.08,347.58,487.14,347.65,487.14z"></path> <path class="st16" d="M333.8,487.14h5.17c0.07,0,0.12-0.06,0.12-0.12v-7.26c0-0.07-0.06-0.12-0.12-0.12h-5.17 c-0.07,0-0.12,0.06-0.12,0.12v7.26C333.68,487.08,333.73,487.14,333.8,487.14z"></path> <path class="st16" d="M333.75,510.58h5.17c0.07,0,0.12-0.06,0.12-0.12V488.5c0-0.07-0.06-0.12-0.12-0.12h-5.17 c-0.07,0-0.12,0.06-0.12,0.12v21.97C333.63,510.53,333.69,510.58,333.75,510.58z"></path> </g> <path class="st16" d="M340.58,478.33h5.17c0.07,0,0.12-0.06,0.12-0.12v-7.26c0-0.07-0.06-0.12-0.12-0.12h-5.17 c-0.07,0-0.12,0.06-0.12,0.12v7.26C340.46,478.27,340.51,478.33,340.58,478.33z"></path> <path class="st16" d="M340.51,510.67h5.17c0.07,0,0.12-0.06,0.12-0.12v-7.26c0-0.07-0.06-0.12-0.12-0.12h-5.17 c-0.07,0-0.12,0.06-0.12,0.12v7.26C340.38,510.61,340.44,510.67,340.51,510.67z"></path> <path class="st16" d="M354.52,478.47h5.17c0.07,0,0.12-0.06,0.12-0.12v-7.26c0-0.07-0.06-0.12-0.12-0.12h-5.17 c-0.07,0-0.12,0.06-0.12,0.12v7.26C354.4,478.42,354.45,478.47,354.52,478.47z"></path> <path class="st16" d="M354.45,510.52h5.17c0.07,0,0.12-0.06,0.12-0.12v-7.26c0-0.07-0.06-0.12-0.12-0.12h-5.17 c-0.07,0-0.12,0.06-0.12,0.12v7.26C354.32,510.46,354.38,510.52,354.45,510.52z"></path> <path class="st16" d="M354.79,446.21h5.17c0.07,0,0.12-0.06,0.12-0.12v-7.26c0-0.07-0.06-0.12-0.12-0.12h-5.17 c-0.07,0-0.12,0.06-0.12,0.12v7.26C354.66,446.15,354.72,446.21,354.79,446.21z"></path> <path class="st16" d="M340.66,446.32h5.17c0.07,0,0.12-0.06,0.12-0.12v-7.26c0-0.07-0.06-0.12-0.12-0.12h-5.17 c-0.07,0-0.12,0.06-0.12,0.12v7.26C340.53,446.27,340.59,446.32,340.66,446.32z"></path> <path class="st16" d="M340.77,414.17h5.17c0.07,0,0.12-0.06,0.12-0.12v-7.26c0-0.07-0.06-0.12-0.12-0.12h-5.17 c-0.07,0-0.12,0.06-0.12,0.12v7.26C340.65,414.11,340.7,414.17,340.77,414.17z"></path> <path class="st16" d="M354.56,414.06h5.17c0.07,0,0.12-0.06,0.12-0.12v-7.26c0-0.07-0.06-0.12-0.12-0.12h-5.17 c-0.07,0-0.12,0.06-0.12,0.12v7.26C354.44,414,354.49,414.06,354.56,414.06z"></path> <path class="st16" d="M354.79,381.79h5.17c0.07,0,0.12-0.06,0.12-0.12v-7.26c0-0.07-0.06-0.12-0.12-0.12h-5.17 c-0.07,0-0.12,0.06-0.12,0.12v7.26C354.66,381.74,354.72,381.79,354.79,381.79z"></path> <path class="st16" d="M340.88,381.9h5.17c0.07,0,0.12-0.06,0.12-0.12v-7.26c0-0.07-0.06-0.12-0.12-0.12h-5.17 c-0.07,0-0.12,0.06-0.12,0.12v7.26C340.76,381.85,340.81,381.9,340.88,381.9z"></path> </g> </g> <g> <rect x="224.01" y="460.99" transform="matrix(-1 -4.451429e-11 4.451429e-11 -1 521.2512 1002.2721)" class="st17" width="73.23" height="80.28"></rect> <rect x="226.71" y="430.27" transform="matrix(-1 -4.396407e-11 4.396407e-11 -1 513.999 891.4767)" class="st17" width="60.57" height="30.94"></rect> <g> <g> <rect x="278.19" y="438.68" transform="matrix(-1 -4.555213e-11 4.555213e-11 -1 561.0912 899.4388)" class="st13" width="4.71" height="22.08"></rect> <rect x="269.94" y="438.68" transform="matrix(-1 -4.516621e-11 4.516621e-11 -1 544.5994 899.4388)" class="st13" width="4.71" height="22.08"></rect> <rect x="260.81" y="438.68" transform="matrix(-1 -4.516621e-11 4.516621e-11 -1 526.3405 899.4388)" class="st13" width="4.71" height="22.08"></rect> <rect x="252.57" y="438.68" transform="matrix(-1 -4.478030e-11 4.478030e-11 -1 509.8485 899.4388)" class="st13" width="4.71" height="22.08"></rect> </g> <g> <g> <rect x="286.62" y="465.46" transform="matrix(-1 -4.484825e-11 4.484825e-11 -1 579.7605 941.6529)" class="st13" width="6.53" height="10.74"></rect> <rect x="275.19" y="465.46" transform="matrix(-1 -4.429136e-11 4.429136e-11 -1 556.9056 941.6529)" class="st13" width="6.53" height="10.74"></rect> <rect x="262.54" y="465.46" transform="matrix(-1 -4.401247e-11 4.401247e-11 -1 531.6019 941.6529)" class="st13" width="6.53" height="10.74"></rect> <rect x="251.11" y="465.46" transform="matrix(-1 -4.456980e-11 4.456980e-11 -1 508.747 941.6529)" class="st13" width="6.53" height="10.74"></rect> </g> <g> <rect x="286.62" y="480.91" transform="matrix(-1 -4.456980e-11 4.456980e-11 -1 579.7605 972.554)" class="st13" width="6.53" height="10.74"></rect> <rect x="275.19" y="480.91" transform="matrix(-1 -4.456980e-11 4.456980e-11 -1 556.9056 972.554)" class="st13" width="6.53" height="10.74"></rect> <rect x="262.54" y="480.91" transform="matrix(-1 -4.429136e-11 4.429136e-11 -1 531.6019 972.554)" class="st13" width="6.53" height="10.74"></rect> <rect x="251.11" y="480.91" transform="matrix(-1 -4.456980e-11 4.456980e-11 -1 508.747 972.554)" class="st13" width="6.53" height="10.74"></rect> </g> <g> <rect x="286.62" y="496.36" transform="matrix(-1 -4.373403e-11 4.373403e-11 -1 579.7605 1003.4551)" class="st13" width="6.53" height="10.74"></rect> <rect x="275.19" y="496.36" transform="matrix(-1 -4.456980e-11 4.456980e-11 -1 556.9056 1003.4551)" class="st13" width="6.53" height="10.74"></rect> <rect x="262.54" y="496.36" transform="matrix(-1 -4.484825e-11 4.484825e-11 -1 531.6019 1003.4551)" class="st13" width="6.53" height="10.74"></rect> <rect x="251.11" y="496.36" transform="matrix(-1 -4.484825e-11 4.484825e-11 -1 508.747 1003.4551)" class="st13" width="6.53" height="10.74"></rect> </g> <g> <rect x="286.62" y="511.81" transform="matrix(-1 -4.401247e-11 4.401247e-11 -1 579.7605 1034.3562)" class="st13" width="6.53" height="10.74"></rect> <rect x="275.19" y="511.81" transform="matrix(-1 -4.484825e-11 4.484825e-11 -1 556.9056 1034.3562)" class="st13" width="6.53" height="10.74"></rect> <rect x="262.54" y="511.81" transform="matrix(-1 -4.401247e-11 4.401247e-11 -1 531.6019 1034.3562)" class="st13" width="6.53" height="10.74"></rect> <rect x="251.11" y="511.81" transform="matrix(-1 -4.456980e-11 4.456980e-11 -1 508.747 1034.3562)" class="st13" width="6.53" height="10.74"></rect> </g> </g> <polygon class="st13" points="206.5,541.33 245.29,541.33 245.29,463.48 207.33,463.48 "></polygon> <rect x="220.62" y="430.27" transform="matrix(-1 -5.239199e-11 5.239199e-11 -1 462.5899 893.9794)" class="st13" width="21.35" height="33.44"></rect> </g> </g> <g> <rect x="438.9" y="444.17" transform="matrix(-1 -4.450630e-11 4.450630e-11 -1 946.1283 983.8278)" class="st12" width="68.34" height="95.48"></rect> <rect x="438.9" y="444.17" transform="matrix(-1 -4.482338e-11 4.482338e-11 -1 897.4343 983.8278)" class="st13" width="19.64" height="95.48"></rect> <rect x="445.2" y="433.91" transform="matrix(-1 -4.448809e-11 4.448809e-11 -1 943.1428 878.3232)" class="st12" width="52.74" height="10.5"></rect> <rect x="445.2" y="433.91" transform="matrix(-1 -4.438861e-11 4.438861e-11 -1 916.0922 878.4785)" class="st13" width="25.69" height="10.66"></rect> <rect x="488.3" y="459.82" transform="matrix(-1 -4.442459e-11 4.442459e-11 -1 990.9719 925.4241)" class="st14" width="14.37" height="5.79"></rect> <rect x="465.84" y="471.39" transform="matrix(-1 -4.442459e-11 4.442459e-11 -1 946.0596 948.5724)" class="st14" width="14.37" height="5.79"></rect> <rect x="488.3" y="489.2" transform="matrix(-1 -4.442459e-11 4.442459e-11 -1 990.9719 984.1852)" class="st14" width="14.37" height="5.79"></rect> <rect x="463.6" y="500.33" transform="matrix(-1 -4.467772e-11 4.467772e-11 -1 941.5684 1006.4432)" class="st14" width="14.37" height="5.79"></rect> <rect x="477.33" y="516.35" transform="matrix(-1 -4.442947e-11 4.442947e-11 -1 980.4491 1038.2721)" class="st14" width="25.79" height="5.56"></rect> </g> <g> <g> <polygon class="st18" points="75.65,321.36 146.02,321.36 146.02,367.95 139.53,367.95 127.75,382.92 115.97,367.95 75.65,367.95 "></polygon> </g> <path class="st12" d="M119.97,342.23v-2.7h-3.75l1.14-8.73h-2.7l-1.19,8.73h-4.76l1.14-8.73h-2.65l-1.19,8.73h-4.34v2.7h3.93 l-0.87,6.63h-4.16v2.7h3.75l-1.19,8.96h2.74l1.19-8.96h4.76l-1.19,8.96h2.74l1.19-8.96h4.34v-2.7h-3.93l0.82-6.63H119.97z M112.24,348.86h-4.76l0.87-6.63h4.76L112.24,348.86z"></path> </g> </g> <g id="Layer_3"> <polygon class="st19" points="380.03,92.86 267.94,92.86 267.94,161.47 282.1,161.47 291.94,180.23 301.78,161.47 380.03,161.47 "></polygon> <path class="st20" d="M333.6,108.18c-3.83-0.43-7.31,1.25-9.62,4.1c-2.31-2.86-5.8-4.53-9.62-4.1c-5.27,0.59-9.51,5.29-10.04,11.09 c-0.31,3.39,0.63,6.54,2.36,8.96l16.66,18.32c0.35,0.38,0.91,0.38,1.26,0l16.66-18.32c1.73-2.42,2.67-5.57,2.36-8.96 C343.12,113.47,338.87,108.78,333.6,108.18z"></path> </g> </svg> 